<svg xmlns="http://www.w3.org/2000/svg" class="text-main hidden xl:inline" width="180" height="66.376" aria-labelledby="Pebble logo" role="img" viewBox="0 0 53.526 17.562">
<path transform="translate(-78.317 -139.7)" d="M89.697 139.844c-3.869.66-10.057 5.173-9.67 8.863.34 3.25 4.19 5.292 8.061 4.63 3.868-.66 5.76-3.764 5.95-7.026.191-3.263-.47-7.13-4.341-6.467z" stroke-width=".26458"/>
<path transform="translate(-78.317 -139.7)" d="M90.68 148.218c.281.272.329.707.088 1.01-.78.988-2.122 1.772-3.823 1.772s-3.08-.754-3.829-1.728a.774.774 0 0 1 .072-1.034.825.825 0 0 1 1.05-.07c2.58 1.952 3.346 1.811 4.546 1.243 1.2-.569 1.4-1.476 1.868-1.222l.032.031zM91.459 147.089a.895.895 0 0 0 .907-.882.895.895 0 0 0-.907-.882.895.895 0 0 0-.908.882c0 .487.407.882.908.882z" fill="#fff" stroke-width=".26458"/>
</svg>